<?xml version="1.0" standalone="no"?><svg xmlns="http://www.w3.org/2000/svg" viewBox="0 0 1440 320"><path fill="#0099ff" fill-opacity="1" d="M0,192L21.8,197.3C43.6,203,87,213,131,208C174.5,203,218,181,262,149.3C305.5,117,349,75,393,80C436.4,85,480,139,524,138.7C567.3,139,611,85,655,85.3C698.2,85,742,139,785,138.7C829.1,139,873,85,916,58.7C960,32,1004,32,1047,58.7C1090.9,85,1135,139,1178,181.3C1221.8,224,1265,256,1309,261.3C1352.7,267,1396,245,1418,234.7L1440,224L1440,320L1418.2,320C1396.4,320,1353,320,1309,320C1265.5,320,1222,320,1178,320C1134.5,320,1091,320,1047,320C1003.6,320,960,320,916,320C872.7,320,829,320,785,320C741.8,320,698,320,655,320C610.9,320,567,320,524,320C480,320,436,320,393,320C349.1,320,305,320,262,320C218.2,320,175,320,131,320C87.3,320,44,320,22,320L0,320Z"></path></svg>